<svg width="36" height="36" viewBox="0 0 36 36" fill="none" xmlns="http://www.w3.org/2000/svg">
<path d="M20.3053 0.0710793C20.2148 0.127136 19.9647 0.554043 19.3224 1.76145C18.8439 2.64975 18.4041 3.43025 18.3351 3.49062C18.2231 3.59843 18.1886 3.60705 17.5678 3.63724C17.2143 3.65448 16.8651 3.65448 16.7961 3.64155C16.6366 3.60705 16.4383 3.40007 16.1279 2.94729C15.9985 2.75756 15.8045 2.47726 15.6967 2.32203C15.589 2.16679 15.3734 1.85632 15.2182 1.63208C15.0587 1.40785 14.8043 1.037 14.6491 0.80846C14.3732 0.403114 14.2482 0.295311 14.0542 0.295311C13.912 0.295311 10.7864 1.36473 10.6614 1.45528C10.4889 1.58033 10.4415 1.7097 10.4674 1.99862C10.4803 2.14091 10.5191 2.56782 10.5493 2.94729C10.5838 3.32676 10.6355 4.0512 10.6657 4.56004C10.7217 5.44834 10.7174 5.48715 10.6398 5.62514C10.532 5.80194 9.506 6.52638 9.26457 6.59538C9.06195 6.65144 8.99729 6.62988 7.77293 6.11673C6.22955 5.46559 6.11315 5.41816 5.84155 5.31467C5.69066 5.25861 5.5096 5.21117 5.44062 5.21117C5.28973 5.21117 5.09573 5.31467 5.02244 5.42678C4.99658 5.4699 4.72929 5.81056 4.4232 6.18141C4.12142 6.55226 3.83258 6.91017 3.78515 6.97485C3.73773 7.03522 3.53942 7.28964 3.34542 7.53112C2.88844 8.09601 2.87982 8.16932 3.21609 8.60053C3.3368 8.76439 3.47044 8.93688 3.50493 8.98863C3.53942 9.04037 3.86275 9.46297 4.21627 9.92868C5.42338 11.5199 5.36733 11.3905 5.13022 11.9468C5.04831 12.1451 4.89742 12.503 4.79826 12.7445C4.54822 13.3353 4.47924 13.4 3.94898 13.4948C1.36231 13.9649 0.633733 14.1028 0.564755 14.1417C0.521644 14.1632 0.461289 14.2279 0.4268 14.2796C0.336267 14.4176 0.0732889 16.453 0.0301778 17.3758L0 17.9148L0.362133 18.0485C0.560444 18.1261 0.965689 18.2727 1.26316 18.3805C1.56062 18.4883 2.04347 18.6651 2.34093 18.7729C2.6384 18.885 3.05227 19.036 3.26351 19.105C3.65151 19.2386 3.81964 19.3594 3.89724 19.562C3.94035 19.6698 4.1904 21.0325 4.22489 21.343C4.24213 21.4853 4.22489 21.5801 4.16884 21.6923C4.12142 21.7742 3.48338 22.4081 2.74618 23.098C2.00898 23.788 1.39249 24.383 1.37524 24.4218C1.31058 24.5943 1.38387 24.7754 1.95724 25.9009C2.77204 27.4921 2.83671 27.6128 2.96604 27.6689C3.15142 27.7551 3.07813 27.7681 4.9276 27.3498C5.29404 27.2679 5.86311 27.1385 6.18644 27.0652C6.92795 26.897 7.00124 26.91 7.36769 27.2981C7.50995 27.449 7.82897 27.7853 8.08333 28.0527C8.58773 28.5831 8.67395 28.7426 8.58773 29.0186C8.56617 29.0962 8.4972 29.3593 8.44115 29.5964C8.38511 29.8336 8.26009 30.3381 8.16093 30.7176C7.67809 32.5718 7.67377 32.6193 7.87209 32.7961C7.92382 32.8435 8.20835 33.016 8.50582 33.1842C8.80329 33.348 9.38097 33.6757 9.79053 33.9086C10.6441 34.3873 10.7347 34.4261 10.8812 34.3916C10.9459 34.3743 11.5107 33.8396 12.2392 33.1065C12.9247 32.4166 13.524 31.8129 13.5714 31.7698C13.7654 31.58 13.9206 31.5757 14.7009 31.7525C15.0975 31.8431 15.52 31.9336 15.6407 31.9552C15.8951 32.0069 16.0416 32.0759 16.1623 32.2139C16.2141 32.2743 16.4727 32.9815 16.8047 33.9862C17.1108 34.909 17.3953 35.7197 17.4384 35.7887C17.5462 35.9655 17.6712 36 18.1756 36C18.943 36 20.7494 35.8189 20.9951 35.7197C21.1891 35.6378 21.2451 35.5214 21.3443 35.0082C21.396 34.7581 21.5124 34.1846 21.6116 33.7361C21.7064 33.2833 21.8358 32.6753 21.8918 32.3778C22.0211 31.7439 22.0944 31.6361 22.5514 31.4593C23.6249 31.041 23.8447 30.9591 23.9525 30.9332C24.1724 30.8772 24.3621 30.9505 24.6983 31.2264C24.8794 31.3731 25.0907 31.5412 25.1683 31.6016C25.2459 31.662 25.608 31.9509 25.9701 32.2484C27.1859 33.2402 27.2505 33.2833 27.4057 33.2833C27.5695 33.2833 27.7161 33.1928 28.3024 32.7443C28.5525 32.5546 29.0526 32.1708 29.419 31.8948C30.4192 31.1316 30.3416 31.2135 30.3373 30.972C30.3373 30.8211 30.2726 30.5926 30.1088 30.1786C29.7208 29.1911 29.1948 27.7983 29.1086 27.5309C28.9965 27.1903 29.0396 27.048 29.4061 26.5607C29.5656 26.3451 29.7725 26.0605 29.8674 25.9268C29.9838 25.7586 30.0959 25.6551 30.2166 25.6034C30.4106 25.5171 30.32 25.5085 32.8119 25.7845C34.1483 25.9311 34.1181 25.9311 34.2561 25.8147C34.3337 25.75 34.4199 25.5904 34.5061 25.349C34.7432 24.6935 34.8381 24.4305 35.0407 23.8828C35.4373 22.8091 35.5365 22.5029 35.5365 22.3822C35.5365 22.1537 35.6313 22.2313 32.9412 20.2477C32.26 19.7432 32.2514 19.7259 32.2816 19.0963C32.329 18.1304 32.3419 18.0657 32.4885 17.9105C32.5834 17.8113 33.1266 17.5138 34.2302 16.9618C35.2907 16.4314 35.8684 16.1166 35.9288 16.0433C36.0323 15.9096 36.0236 15.707 35.8986 15.2369C35.8339 14.9868 35.7305 14.5082 35.4287 13.0722C35.3468 12.6841 35.2563 12.3306 35.2261 12.2831C35.114 12.1063 34.9545 12.0804 33.4887 11.9856C30.9451 11.8217 31.1607 11.8476 30.9667 11.6579C30.8719 11.563 30.7856 11.4552 30.7727 11.4164C30.7598 11.3776 30.652 11.1706 30.5356 10.9593C30.2554 10.4677 30.2511 10.3038 30.4839 9.90712C30.5744 9.75619 30.7899 9.38966 30.9667 9.09212C31.3418 8.45392 31.8634 7.56993 32.0703 7.22927C32.2687 6.89723 32.2687 6.72474 32.0574 6.48757C31.9712 6.39271 31.3892 5.79332 30.7684 5.15943C29.4794 3.84853 29.4923 3.85715 29.0957 4.05983C28.975 4.12451 28.768 4.23232 28.6387 4.30993C28.3154 4.49104 27.7247 4.82308 27.41 4.99557C27.2678 5.07318 27.0048 5.2198 26.828 5.31898C26.2072 5.66826 25.9529 5.78038 25.7891 5.78038C25.6037 5.77607 24.7803 5.33623 24.569 5.12493C24.4483 5.00419 24.4397 4.97832 24.4095 4.49104C24.3923 4.21075 24.3535 3.3397 24.3276 2.5592C24.2715 1.08012 24.2586 0.980946 24.0689 0.864517C23.9956 0.821396 23.6033 0.722214 22.2583 0.403114C21.8918 0.312561 21.3745 0.187508 21.1072 0.118511C20.5424 -0.0280991 20.4691 -0.0324135 20.3053 0.0710793ZM19.5854 7.53974C21.2063 7.76829 22.7583 8.39786 24.1767 9.39397C25.0562 10.0149 26.0132 10.9895 26.6901 11.9468C27.354 12.8825 27.9317 14.1546 28.2421 15.3491C28.4749 16.2503 28.5309 16.7548 28.5309 17.9967C28.5309 19.1783 28.4663 19.7518 28.2421 20.6056C27.2591 24.3442 24.3966 27.2118 20.6631 28.195C19.8225 28.4149 19.0422 28.5055 18.0334 28.5055C17.0677 28.5012 16.5029 28.4408 15.6838 28.2597C14.4207 27.9751 13.0196 27.3541 11.9935 26.6211C11.4029 26.1985 11.2046 26.0303 10.5924 25.418C9.69569 24.5167 9.18266 23.8181 8.63084 22.7185C8.15662 21.7871 7.80311 20.7005 7.61773 19.6354C7.50995 19.0101 7.4884 17.4361 7.57893 16.6772C7.70395 15.6207 7.98417 14.6203 8.44115 13.607C10.032 10.0753 13.4895 7.68636 17.3651 7.43625C17.8911 7.40175 18.9775 7.4535 19.5854 7.53974Z" fill="#102660"/>
</svg>
