<svg width="45" height="41" viewBox="0 0 45 41" fill="none" xmlns="http://www.w3.org/2000/svg">
<path d="M42.7394 14.9263L42.7397 14.9263C43.3198 14.9762 43.7748 15.3446 43.9359 15.8145C44.0944 16.2791 43.9558 16.7972 43.5443 17.1406C43.5442 17.1407 43.5441 17.1408 43.544 17.1408L33.7248 25.3269L33.2484 25.724L33.3924 26.3273L36.2875 38.4501C36.2875 38.4501 36.2875 38.4502 36.2875 38.4503C36.4003 38.9254 36.2136 39.4337 35.7639 39.7427L35.7631 39.7433C35.3043 40.0593 34.6836 40.0865 34.1934 39.808L22.9943 33.4404L22.5001 33.1594L22.0058 33.4403L10.8044 39.8082L10.8041 39.8083C10.5809 39.9353 10.3281 40 10.0722 40C9.77337 40 9.48205 39.9126 9.23813 39.7441L9.23614 39.7427C8.78664 39.4338 8.59987 38.9258 8.7124 38.4509C8.71246 38.4506 8.71252 38.4503 8.71258 38.4501L11.6076 26.3273L11.7517 25.724L11.2753 25.3269L1.45584 17.1407C1.45582 17.1407 1.45579 17.1406 1.45577 17.1406C1.04449 16.7976 0.906035 16.2785 1.06359 15.8163C1.22627 15.3458 1.68124 14.9774 2.26136 14.9262C2.2616 14.9262 2.26184 14.9262 2.26207 14.9262L15.2529 13.805L15.8383 13.7545L16.0791 13.2185L21.2128 1.79121L21.2131 1.79072C21.4196 1.33029 21.912 1 22.5 1C23.087 1 23.5804 1.32948 23.7896 1.79196C23.7897 1.79227 23.7899 1.79258 23.79 1.79289L28.9231 13.2185L29.1638 13.7545L29.7492 13.805L42.7394 14.9263Z" fill="#102660" stroke="#102660" stroke-width="2"/>
</svg>
