<svg width="16" height="32" viewBox="0 0 16 32" fill="none" xmlns="http://www.w3.org/2000/svg">
<path d="M5.28557 0.15775C3.65061 0.395378 2.15166 0.848957 0.964462 1.48653C0.627513 1.65807 0.344098 1.81341 0.336412 1.82163C0.32104 1.83808 0.432864 2.2524 0.567052 2.74959C0.708873 3.24682 1.01488 4.32416 1.24626 5.13631C1.47002 5.94841 1.67925 6.64461 1.70188 6.68611C1.71694 6.7193 1.94655 6.62151 2.21475 6.4578C3.57872 5.63111 5.61911 5.25547 6.92971 5.60306C7.77554 5.82359 8.32978 6.28212 8.69124 7.04547C8.83423 7.36073 8.86354 7.55118 8.85954 8.17155C8.84786 8.80015 8.81599 9.00675 8.62972 9.48533C8.33489 10.2279 7.73332 11.1919 6.63992 12.6738C5.21538 14.6085 4.6746 15.6142 4.23727 17.15C4.02624 17.918 4.00206 18.1163 3.95452 19.5719L3.91371 21.1681L6.69194 21.186L9.47781 21.204L9.53042 20.1455C9.63736 17.7638 10.1561 16.6174 12.3335 13.943C14.48 11.3015 15.1691 9.78388 15.2912 7.42714C15.4753 3.72246 13.2565 0.994938 9.44502 0.225903C8.37017 0.0121785 6.51558 -0.0163129 5.28557 0.15775Z" fill="#102660"/>
<path d="M5.37133 23.5846C3.8032 24.1122 2.89346 25.5209 2.86578 27.4481C2.8501 28.6971 3.18733 29.6671 3.91498 30.4576C4.63496 31.2563 5.63994 31.6516 6.7624 31.5844C8.37355 31.4872 9.60877 30.5025 10.0768 28.9421C10.3029 28.1991 10.3262 26.9502 10.1249 26.2127C9.76697 24.9034 8.90294 23.9548 7.73751 23.5833C7.05197 23.3639 6.02916 23.3655 5.37133 23.5846Z" fill="#102660"/>
</svg>
