<svg width="52" height="51" viewBox="0 0 30 51" fill="none" xmlns="http://www.w3.org/2000/svg">
<path d="M24.8648 12.8435C22.5502 13.3535 21.3009 15.8351 22.3282 17.8688C22.5565 18.3229 22.6326 18.4348 23.0068 18.808C24.3385 20.1638 26.4755 20.2571 27.9785 19.0194C28.3843 18.6898 28.8853 17.9373 29.0438 17.4273C29.4497 16.146 29.1453 14.871 28.2004 13.8946C27.3443 12.999 26.019 12.5885 24.8648 12.8435Z" fill="#102660"/>
<path d="M28.7268 22.3654C28.5683 22.3778 27.4712 22.4151 26.2853 22.4524C23.3683 22.5395 20.6922 22.6328 20.058 22.6763L19.5317 22.7137V23.4911V24.2748L20.1848 24.2437C20.9775 24.2001 21.9161 24.281 22.2395 24.4116C22.5692 24.5484 22.88 24.8594 22.9561 25.1268C22.9941 25.2574 23.0195 27.2788 23.0195 30.4196C23.0195 35.8928 23.0195 35.9426 22.6897 36.2473C22.3727 36.5334 22.1 36.5894 20.9458 36.6205L19.8488 36.6454V37.4477V38.25H26.1585H32.4683V37.4477V36.6454L31.5044 36.6143C30.1092 36.5707 29.6463 36.3904 29.4878 35.8306C29.4497 35.6876 29.4244 33.2371 29.4244 28.9643V22.328L29.2214 22.3405C29.1073 22.3467 28.8853 22.3591 28.7268 22.3654Z" fill="#102660"/>
</svg>
