<svg width="43" height="37" viewBox="0 0 43 37" fill="none" xmlns="http://www.w3.org/2000/svg">
<mask id="path-1-inside-1" fill="white">
<path d="M8.84664 27.879C8.84664 27.7656 8.87521 27.6116 8.79115 27.516C8.70503 27.4182 8.47709 27.3839 8.35336 27.3256C8.02882 27.173 7.71928 26.9987 7.42845 26.7988C6.69181 26.2927 6.22113 25.6966 5.80986 24.9625C5.69147 24.7512 5.57678 24.5392 5.47607 24.3205C5.43126 24.2235 5.40701 24.0771 5.33733 23.9944C5.20373 23.8361 4.70284 23.8728 4.6605 24.0821C4.58158 24.4711 4.89933 24.8756 5.09953 25.201C5.6777 26.1405 6.3313 27.0294 7.34623 27.6345C7.73531 27.8663 8.14351 28.0991 8.62055 28.0991C8.62055 28.0991 8.83246 28.1095 8.84664 27.879Z"/>
</mask>
<path d="M8.84664 27.879L9.84476 27.9404L9.84664 27.9097V27.879H8.84664ZM8.79115 27.516L9.54199 26.8555L9.54153 26.855L8.79115 27.516ZM8.35336 27.3256L8.77976 26.4211L8.77889 26.4207L8.35336 27.3256ZM7.42845 26.7988L7.99495 25.9747L7.9947 25.9746L7.42845 26.7988ZM5.80986 24.9625L6.68226 24.4738V24.4738L5.80986 24.9625ZM5.47607 24.3205L6.38434 23.9022L6.38395 23.9013L5.47607 24.3205ZM5.33733 23.9944L6.10218 23.3502L6.10154 23.3494L5.33733 23.9944ZM4.6605 24.0821L5.64054 24.2809L5.64065 24.2804L4.6605 24.0821ZM5.09953 25.201L4.24781 25.725L4.24787 25.7251L5.09953 25.201ZM7.34623 27.6345L6.83413 28.4934L6.83434 28.4935L7.34623 27.6345ZM8.62055 28.0991L8.66983 27.1003L8.64521 27.0991H8.62055V28.0991ZM9.84664 27.879C9.84664 27.879 9.84655 27.885 9.84888 27.8307C9.85047 27.7934 9.85335 27.721 9.84907 27.6388C9.84123 27.4882 9.80414 27.1535 9.54199 26.8555L8.04031 28.1765C7.86222 27.974 7.85288 27.7641 7.85177 27.7428C7.85086 27.7252 7.85184 27.7186 7.85071 27.7451C7.8503 27.7546 7.84664 27.8223 7.84664 27.879H9.84664ZM9.54153 26.855C9.40185 26.6964 9.24648 26.6069 9.15442 26.5605C9.05649 26.511 8.96417 26.4781 8.90614 26.4585C8.86139 26.4434 8.77636 26.4169 8.76897 26.4145C8.73368 26.4031 8.74853 26.4063 8.77976 26.4211L7.92695 28.2301C7.97722 28.2538 8.02329 28.2719 8.0589 28.285C8.09499 28.2983 8.12857 28.3094 8.15473 28.3179C8.17953 28.3259 8.20716 28.3345 8.22354 28.3396C8.24308 28.3458 8.25604 28.3499 8.26657 28.3535C8.27691 28.357 8.28042 28.3584 8.2795 28.358C8.27879 28.3577 8.26897 28.3539 8.2532 28.3459C8.23784 28.3382 8.20984 28.323 8.17525 28.2986C8.14086 28.2742 8.09188 28.235 8.04076 28.177L9.54153 26.855ZM8.77889 26.4207C8.49796 26.2886 8.23633 26.1407 7.99495 25.9747L6.86195 27.6229C7.20223 27.8568 7.55967 28.0574 7.92782 28.2305L8.77889 26.4207ZM7.9947 25.9746C7.41627 25.5772 7.04002 25.1123 6.68226 24.4738L4.93745 25.4513C5.40225 26.2809 5.96735 27.0083 6.8622 27.623L7.9947 25.9746ZM6.68226 24.4738C6.56742 24.2688 6.4682 24.0842 6.38434 23.9022L4.56779 24.7389C4.68536 24.9942 4.81552 25.2337 4.93745 25.4513L6.68226 24.4738ZM6.38395 23.9013C6.39588 23.9272 6.39966 23.9409 6.39287 23.9208C6.38986 23.9119 6.38695 23.9029 6.38124 23.8855C6.37628 23.8703 6.36926 23.8489 6.36136 23.826C6.3462 23.7821 6.32126 23.7131 6.28528 23.6374C6.24966 23.5624 6.19224 23.4571 6.10218 23.3502L4.57248 24.6386C4.54389 24.6047 4.52314 24.5741 4.50878 24.5506C4.49442 24.5272 4.48473 24.5081 4.47893 24.4959C4.4685 24.474 4.46548 24.4631 4.47069 24.4782C4.47298 24.4849 4.47576 24.4932 4.48046 24.5076C4.48443 24.5197 4.49105 24.5401 4.4977 24.5598C4.50464 24.5804 4.5138 24.6068 4.52477 24.6358C4.53572 24.6648 4.55008 24.7006 4.56819 24.7398L6.38395 23.9013ZM6.10154 23.3494C5.87086 23.0761 5.57484 22.977 5.40918 22.9382C5.22026 22.894 5.03006 22.888 4.85968 22.9059C4.69428 22.9234 4.48508 22.9702 4.28162 23.0826C4.08554 23.191 3.77102 23.4357 3.68036 23.8838L5.64065 24.2804C5.57116 24.6239 5.33513 24.7855 5.24905 24.8331C5.15559 24.8847 5.08789 24.893 5.06971 24.8949C5.04655 24.8973 5.00927 24.8987 4.95316 24.8856C4.92031 24.8779 4.73701 24.8336 4.57313 24.6394L6.10154 23.3494ZM3.68047 23.8833C3.57505 24.4029 3.74937 24.8478 3.87977 25.1103C4.00028 25.3529 4.19713 25.6426 4.24781 25.725L5.95124 24.677C5.92022 24.6266 5.88836 24.5769 5.86045 24.5336C5.83091 24.4878 5.80597 24.4493 5.78077 24.4095C5.73042 24.3298 5.6956 24.2702 5.67092 24.2205C5.61213 24.1021 5.66703 24.1503 5.64054 24.2809L3.68047 23.8833ZM4.24787 25.7251C4.84866 26.7013 5.60603 27.7612 6.83413 28.4934L7.85834 26.7756C7.05657 26.2975 6.50673 25.5796 5.95118 24.6769L4.24787 25.7251ZM6.83434 28.4935C7.19776 28.7101 7.83063 29.0991 8.62055 29.0991V27.0991C8.45638 27.0991 8.27287 27.0226 7.85813 26.7754L6.83434 28.4935ZM8.62055 28.0991C8.57127 29.0979 8.57181 29.0979 8.57234 29.0979C8.57252 29.0979 8.57306 29.098 8.57341 29.098C8.57413 29.098 8.57486 29.0981 8.57559 29.0981C8.57706 29.0981 8.57855 29.0982 8.58006 29.0983C8.58308 29.0984 8.5862 29.0985 8.58942 29.0986C8.59585 29.0988 8.60268 29.099 8.60989 29.0991C8.62428 29.0993 8.64036 29.0992 8.65792 29.0987C8.69269 29.0977 8.73518 29.095 8.78333 29.0887C8.87543 29.0767 9.01137 29.0487 9.16003 28.9775C9.3141 28.9037 9.48847 28.7799 9.62639 28.5815C9.766 28.3807 9.83147 28.1563 9.84476 27.9404L7.84853 27.8176C7.85472 27.7169 7.88838 27.5777 7.98427 27.4398C8.07847 27.3043 8.19721 27.2211 8.29653 27.1735C8.39044 27.1286 8.47251 27.1123 8.52444 27.1055C8.55251 27.1019 8.57832 27.1001 8.60145 27.0995C8.61319 27.0992 8.6247 27.0991 8.63598 27.0992C8.64163 27.0993 8.64727 27.0994 8.6529 27.0996C8.65572 27.0997 8.65854 27.0998 8.66136 27.0999C8.66277 27.1 8.66418 27.1 8.66559 27.1001C8.6663 27.1001 8.667 27.1002 8.66771 27.1002C8.66806 27.1002 8.66859 27.1002 8.66877 27.1003C8.6693 27.1003 8.66983 27.1003 8.62055 28.0991Z" fill="#EADEDE" mask="url(#path-1-inside-1)"/>
<mask id="path-3-inside-2" fill="white">
<path d="M37.308 18.8142C37.2261 18.7251 37.0952 18.6181 37.0835 18.5011C37.0716 18.3813 37.2024 18.2407 37.2446 18.1331C37.3558 17.8513 37.4411 17.56 37.495 17.2578C37.6319 16.4926 37.5222 15.7892 37.2724 15.0068C37.2005 14.7816 37.1255 14.5577 37.0362 14.3355C36.9966 14.2369 36.9074 14.1097 36.8952 14.0099C36.8719 13.8188 37.2402 13.598 37.4203 13.7415C37.7553 14.0081 37.8308 14.4846 37.9294 14.8403C38.2138 15.8674 38.4102 16.8923 38.155 17.8741C38.0571 18.2503 37.9468 18.6369 37.6213 18.8747C37.6213 18.8747 37.4843 18.9885 37.308 18.8142Z"/>
</mask>
<path d="M37.308 18.8142L36.5343 19.4392L36.517 19.422L36.5005 19.4041L37.308 18.8142ZM37.0835 18.5011L36.0343 18.5647L36.0342 18.564L37.0835 18.5011ZM37.2446 18.1331L36.2501 17.8025L36.2505 17.8015L37.2446 18.1331ZM37.495 17.2578L36.4547 17.0889L36.4547 17.0886L37.495 17.2578ZM37.2724 15.0068L36.26 15.2477L36.26 15.2477L37.2724 15.0068ZM37.0362 14.3355L36.0459 14.6377L36.0456 14.6369L37.0362 14.3355ZM36.8952 14.0099L35.848 14.0925L35.8479 14.0916L36.8952 14.0099ZM37.4203 13.7415L36.7303 14.4406L36.7299 14.4403L37.4203 13.7415ZM37.9294 14.8403L38.9515 14.6322L38.9515 14.6323L37.9294 14.8403ZM38.155 17.8741L39.1813 18.1071L39.1813 18.1073L38.155 17.8741ZM37.6213 18.8747L36.8958 18.1764L36.9196 18.1567L36.9447 18.1383L37.6213 18.8747ZM36.5005 19.4041C36.5008 19.4044 36.4983 19.4017 36.4899 19.3931C36.4762 19.3792 36.4765 19.3796 36.4559 19.3586C36.4289 19.3312 36.3824 19.2835 36.3348 19.2272C36.2553 19.1333 36.0675 18.8973 36.0343 18.5647L38.1328 18.4375C38.1213 18.3228 38.0834 18.2371 38.0568 18.1883C38.0309 18.1407 38.0072 18.1127 38.0041 18.109C38.0009 18.1052 38.0032 18.1083 38.0241 18.1297C38.0275 18.1331 38.0515 18.1574 38.0607 18.1668C38.0752 18.1816 38.0947 18.2017 38.1155 18.2243L36.5005 19.4041ZM36.0342 18.564C36.0148 18.3685 36.0567 18.2072 36.093 18.1047C36.1297 18.0013 36.1759 17.9166 36.2046 17.8667C36.2199 17.84 36.2345 17.8159 36.2449 17.7989C36.2573 17.7786 36.2624 17.7703 36.2685 17.7601C36.2829 17.736 36.2672 17.7589 36.2501 17.8025L38.2392 18.4637C38.2186 18.5162 38.1966 18.5608 38.1791 18.5939C38.1614 18.6273 38.1443 18.6567 38.1314 18.6781C38.1195 18.6981 38.1056 18.7206 38.099 18.7316C38.0903 18.7457 38.0859 18.7532 38.083 18.7583C38.0802 18.7632 38.0813 18.7614 38.0845 18.7551C38.0875 18.7488 38.0946 18.7338 38.1024 18.7116C38.1103 18.6896 38.1207 18.6554 38.1279 18.6111C38.1351 18.5664 38.1397 18.5075 38.1328 18.4381L36.0342 18.564ZM36.2505 17.8015C36.3423 17.5686 36.4113 17.3317 36.4547 17.0889L38.5354 17.4267C38.4708 17.7883 38.3693 18.134 38.2388 18.4647L36.2505 17.8015ZM36.4547 17.0886C36.559 16.5054 36.4843 15.9499 36.26 15.2477L38.2848 14.7659C38.5602 15.6284 38.7048 16.4798 38.5353 17.427L36.4547 17.0886ZM36.26 15.2477C36.19 15.0285 36.1228 14.8291 36.0459 14.6377L38.0265 14.0334C38.1282 14.2863 38.2109 14.5347 38.2848 14.7659L36.26 15.2477ZM36.0456 14.6369C36.0523 14.6537 36.0556 14.6586 36.0446 14.6373C36.0396 14.6276 36.0345 14.6179 36.0261 14.6019C36.0186 14.5876 36.0086 14.5686 35.9983 14.5484C35.9786 14.5095 35.9495 14.4503 35.9229 14.382C35.8971 14.3158 35.863 14.2144 35.848 14.0925L37.9423 13.9273C37.9376 13.8892 37.9305 13.859 37.9249 13.8388C37.9192 13.8184 37.9138 13.8037 37.9108 13.796C37.9056 13.7827 37.9035 13.7802 37.9126 13.7979C37.9167 13.806 37.9215 13.8152 37.9287 13.829C37.9351 13.841 37.9446 13.8592 37.9538 13.8769C37.971 13.9103 38.0003 13.9681 38.0268 14.0341L36.0456 14.6369ZM35.8479 14.0916C35.807 13.7553 35.9437 13.4887 36.0641 13.3285C36.1894 13.1619 36.3516 13.0332 36.5177 12.9423C36.7567 12.8114 37.4786 12.5391 38.1107 13.0426L36.7299 14.4403C36.947 14.6133 37.1939 14.6468 37.3512 14.6375C37.4957 14.629 37.5933 14.5866 37.6453 14.5582C37.6997 14.5284 37.7629 14.4818 37.8201 14.4058C37.8723 14.3362 37.9717 14.169 37.9424 13.9282L35.8479 14.0916ZM38.1104 13.0424C38.4851 13.3406 38.6645 13.7136 38.7625 13.9778C38.8524 14.2202 38.9232 14.5301 38.9515 14.6322L36.9072 15.0485C36.8829 14.9606 36.8477 14.8194 36.8306 14.7545C36.8071 14.6658 36.7864 14.5961 36.7645 14.5372C36.7164 14.4076 36.6906 14.409 36.7303 14.4406L38.1104 13.0424ZM38.9515 14.6323C39.2415 15.6793 39.4968 16.8935 39.1813 18.1071L37.1287 17.641C37.3236 16.891 37.1861 16.0555 36.9072 15.0484L38.9515 14.6323ZM39.1813 18.1073C39.0977 18.4285 38.9361 19.1448 38.2979 19.611L36.9447 18.1383C36.9365 18.1443 36.9602 18.1324 36.9994 18.0478C37.0429 17.9541 37.0785 17.8338 37.1288 17.6408L39.1813 18.1073ZM37.6213 18.8747C38.3468 19.5729 38.3463 19.5733 38.3458 19.5737C38.3456 19.5739 38.3451 19.5743 38.3448 19.5746C38.3441 19.5752 38.3434 19.5757 38.3427 19.5763C38.3413 19.5775 38.3398 19.5786 38.3384 19.5798C38.3355 19.5822 38.3324 19.5846 38.3293 19.5871C38.3231 19.592 38.3165 19.5971 38.3095 19.6024C38.2956 19.613 38.2799 19.6243 38.2624 19.6361C38.2279 19.6596 38.1847 19.686 38.1332 19.7123C38.0324 19.7637 37.8829 19.8225 37.6916 19.8452C37.2361 19.8992 36.8216 19.7231 36.5343 19.4392L38.0816 18.1892C38.0391 18.1472 37.9521 18.0767 37.8128 18.0255C37.6679 17.9722 37.5136 17.9574 37.3699 17.9744C37.2349 17.9904 37.1307 18.0317 37.061 18.0671C37.0251 18.0854 36.9941 18.1044 36.9677 18.1223C36.9544 18.1313 36.9418 18.1404 36.9299 18.1494C36.924 18.1539 36.9182 18.1584 36.9125 18.1629C36.9096 18.1651 36.9068 18.1674 36.904 18.1696C36.9026 18.1708 36.9013 18.1719 36.8999 18.173C36.8992 18.1736 36.8985 18.1742 36.8978 18.1747C36.8975 18.175 36.897 18.1754 36.8968 18.1756C36.8963 18.176 36.8958 18.1764 37.6213 18.8747Z" fill="#EADEDE" mask="url(#path-3-inside-2)"/>
<path d="M4.6726 26.8863C5.01485 27.3596 5.35593 27.7509 5.82852 28.0877L5.82868 28.0879C5.86379 28.1129 5.89902 28.1387 5.93453 28.1647C6.06359 28.2592 6.19635 28.3563 6.34062 28.4304C6.39936 28.4605 6.44685 28.4794 6.48331 28.4904C6.49011 28.4805 6.49746 28.4703 6.50539 28.4598C6.48747 28.4506 6.4689 28.4403 6.4504 28.4291L6.45034 28.429C6.181 28.2655 5.91517 28.0803 5.67088 27.8772L4.6726 26.8863ZM4.6726 26.8863C4.97488 27.2401 5.30778 27.5753 5.67085 27.8772L4.6726 26.8863ZM3.42358 24.7573C3.42361 24.7573 3.42396 24.7586 3.42453 24.7616C3.42383 24.7589 3.42354 24.7574 3.42358 24.7573ZM6.40859 28.6215C6.40847 28.6217 6.4085 28.6217 6.40866 28.6214L6.40859 28.6215Z" stroke="#EADEDE"/>
<path d="M39.4986 15.1398C39.6508 15.4745 39.7594 15.8333 39.8739 16.2225L39.874 16.2227C40.0759 16.9078 40.1973 17.5 40.1186 18.161L40.1186 18.1612C40.1136 18.2035 40.1091 18.2466 40.1046 18.2903C40.0881 18.4503 40.0708 18.6172 40.023 18.7747C40.0014 18.846 39.9802 18.8925 39.9633 18.9222C39.9394 18.9178 39.9128 18.9137 39.8841 18.9107L39.8832 18.9106C39.8418 18.9064 39.8009 18.9031 39.768 18.9005L39.7662 18.9004C39.765 18.9003 39.7637 18.9002 39.7625 18.9001C39.7774 18.8625 39.7968 18.8093 39.8089 18.7517L39.809 18.7516C39.8738 18.4436 39.9161 18.1233 39.9252 17.806L39.4986 15.1398ZM39.4986 15.1398C39.7783 15.9867 39.9511 16.9008 39.9252 17.8059L39.4986 15.1398ZM39.6981 18.9703C39.6981 18.9703 39.6981 18.9703 39.6981 18.9703Z" stroke="#EADEDE"/>
<path d="M18.635 20.5643C18.5692 20.6462 18.4964 20.7219 18.4234 20.7977C18.3371 20.8874 18.2506 20.9772 18.1754 21.0779M18.635 20.5643L6.49237 18.8813C6.77724 20.1988 7.16244 21.4955 7.62249 22.7802L7.6226 22.7806C7.69267 22.9767 7.7017 23.1637 7.70736 23.2808L7.70757 23.2852C7.71417 23.4219 7.71798 23.4723 7.73171 23.5168C7.84816 23.8938 8.15997 24.3181 8.49296 24.7216M18.635 20.5643C18.7404 20.4329 18.82 20.2759 18.8977 20.1225C18.9324 20.0542 18.9667 19.9866 19.0027 19.9223L18.635 20.5643ZM18.1754 21.0779L17.7748 20.7786C17.7748 20.7787 17.7748 20.7787 17.7748 20.7787C17.0394 21.7631 16.2628 22.7212 15.4787 23.6885C15.3672 23.826 15.2556 23.9637 15.144 24.1017C14.8873 24.4188 14.6242 24.7294 14.357 25.0449C14.2585 25.1612 14.1593 25.2783 14.0598 25.3965L14.0597 25.3966C14.0141 25.4508 13.9693 25.5116 13.933 25.5611L13.9193 25.5798C13.8855 25.6259 13.8558 25.6665 13.825 25.7058C13.7907 25.7496 13.7646 25.7789 13.7464 25.7979C13.7229 25.7969 13.6971 25.7952 13.6638 25.793L13.66 25.7927C13.6269 25.7905 13.577 25.7871 13.5303 25.7871C13.4325 25.7871 13.3256 25.7852 13.2134 25.7832C12.9571 25.7787 12.6736 25.7736 12.4104 25.7897C12.3021 25.7963 12.1794 25.8001 12.0488 25.8042C11.7605 25.8131 11.4332 25.8233 11.1347 25.8674M18.1754 21.0779C17.4336 22.0708 16.6503 23.0372 15.8667 24.0039C15.7553 24.1413 15.6439 24.2787 15.5326 24.4162C15.2722 24.738 15.0037 25.055 14.7353 25.3719C14.6375 25.4874 14.5397 25.6029 14.4423 25.7185L18.1754 21.0779ZM11.1347 25.8674C11.1348 25.8673 11.1348 25.8673 11.1349 25.8673L11.2078 26.362L11.1347 25.8674ZM11.1347 25.8674C11.0165 25.8848 10.8774 25.9206 10.7728 25.9475C10.7413 25.9556 10.713 25.9629 10.6893 25.9686C10.5538 26.0015 10.4846 26.0088 10.4486 26.0058L10.4483 26.0057C10.1121 25.9773 9.74964 25.8167 9.39328 25.566C9.04082 25.3181 8.7265 25.0045 8.49296 24.7216M8.49296 24.7216C8.49293 24.7216 8.4929 24.7216 8.49287 24.7215L8.10729 25.0399L8.49296 24.7216ZM17.2752 12.9917L17.2753 12.9917C17.5269 12.9185 17.7763 12.826 18.0461 12.7259C18.1046 12.7042 18.164 12.6822 18.2246 12.6599C18.4251 12.5862 18.6362 12.5109 18.8544 12.4456C18.8538 12.4072 18.8536 12.3724 18.8534 12.3401C18.8527 12.2534 18.8523 12.1842 18.8466 12.1099C18.7914 11.3897 18.8308 10.6581 18.8679 9.97148C18.8748 9.84238 18.8817 9.71488 18.8878 9.58934L18.8878 9.58926C18.9986 7.33455 19.1677 5.08727 19.3399 2.84381L19.3399 2.84374C19.3463 2.76013 19.3534 2.68644 19.36 2.6182C19.3728 2.4858 19.3836 2.37393 19.3836 2.24996C19.3835 2.08096 19.3594 1.96251 19.3098 1.86927L19.3098 1.86922C19.2531 1.76237 19.0918 1.63709 18.8389 1.59078C18.59 1.54521 18.3687 1.59882 18.2426 1.70003C18.223 1.71584 18.2158 1.72644 18.2125 1.73201C18.2085 1.73866 18.2022 1.75135 18.1955 1.7782C18.1881 1.80772 18.1821 1.846 18.1753 1.90683C18.1738 1.9205 18.1721 1.9373 18.1702 1.95608C18.1651 2.00552 18.1587 2.06871 18.1509 2.1249M17.2752 12.9917L10.2002 10.7876C10.3484 10.9115 10.5541 11.0835 10.7556 11.0339L10.875 11.5194C10.8751 11.5194 10.8752 11.5194 10.8752 11.5193C11.3185 11.4102 11.4297 11.016 11.4558 10.8205C11.4699 10.7145 11.4692 10.6133 11.467 10.5403C11.4655 10.4922 11.4641 10.4636 11.463 10.442C11.4619 10.4198 11.4611 10.405 11.4611 10.3842C11.4611 9.70049 11.4093 9.02098 11.3587 8.36477L11.3587 8.3647C11.2817 7.36744 11.1974 6.37078 11.1132 5.37626L11.1096 5.33455C11.0242 4.32556 10.9391 3.31872 10.8618 2.31187L10.8618 2.31184C10.8487 2.1419 10.8195 1.9643 10.7939 1.80917C10.791 1.79114 10.7881 1.77341 10.7852 1.75603C10.7562 1.57834 10.7333 1.42494 10.7271 1.28184C10.715 1.00512 10.7674 0.846972 10.9046 0.724363L10.5715 0.351554L10.9044 0.724595C10.9662 0.669446 11.0468 0.616545 11.146 0.566271L11.1463 0.566101C11.3355 0.470103 11.5362 0.481225 11.7419 0.583459C11.958 0.690926 12.1467 0.887046 12.2484 1.08913C12.3124 1.21668 12.3563 1.38146 12.3947 1.59426C12.4063 1.65835 12.4189 1.73773 12.4324 1.82287C12.456 1.97218 12.4825 2.13917 12.5113 2.27234C12.7985 3.60116 13.0147 4.91837 13.2331 6.24923C13.3825 7.16009 13.5331 8.07735 13.7081 9.0091L13.7082 9.00942C13.7658 9.31465 13.8225 9.61724 13.8748 9.91908C13.8794 9.94597 13.8841 9.97772 13.8893 10.0134C13.9191 10.216 13.9675 10.5446 14.136 10.8251L14.1362 10.8255C14.2134 10.9536 14.3268 11.0994 14.4655 11.2247C14.5984 11.3449 14.7963 11.4842 15.044 11.5293L15.0441 11.5293C15.4033 11.5946 15.6776 11.4085 15.8253 11.2715C15.9794 11.1286 16.0881 10.9575 16.149 10.8488M17.2752 12.9917C17.1032 13.0417 16.9736 13.064 16.827 13.087C16.814 13.089 16.8009 13.091 16.7876 13.0931C16.6467 13.115 16.4816 13.1406 16.2747 13.193C16.1778 13.2176 16.044 13.2634 15.9326 13.3016M17.2752 12.9917L15.9326 13.3016M18.1509 2.1249L17.6558 2.05669L18.151 2.1247C18.151 2.12476 18.1509 2.12483 18.1509 2.1249ZM18.1509 2.1249C18.0899 2.56901 17.9983 3.00867 17.9078 3.42785L17.9078 3.42794C17.508 5.27741 17.1 7.13087 16.6612 8.97734C16.6215 9.14419 16.597 9.28683 16.57 9.4436C16.5491 9.56457 16.5268 9.69395 16.495 9.84937C16.4305 10.1647 16.337 10.5136 16.149 10.8488M16.149 10.8488L15.7136 10.6047L16.1491 10.8487C16.1491 10.8487 16.149 10.8488 16.149 10.8488ZM4.47267 3.30008L4.47251 3.30015C4.41934 3.32501 4.37044 3.34189 4.33284 3.35372C4.3141 3.35962 4.29653 3.36476 4.28258 3.3688L4.25059 3.37809C4.2502 3.38006 4.24981 3.3822 4.24941 3.38453C4.24104 3.4335 4.24372 3.50792 4.26038 3.59638C4.33599 3.99682 4.54344 4.35582 4.79596 4.79282C4.85504 4.89507 4.9166 5.00159 4.97951 5.11391L4.47267 3.30008ZM4.47267 3.30008C4.48257 3.29544 4.49223 3.29091 4.50168 3.28648C4.57928 3.2501 4.64268 3.22037 4.70619 3.19495C4.77579 3.1671 4.82636 3.15255 4.86429 3.14651C4.89969 3.14087 4.91534 3.14407 4.92063 3.14548L4.92076 3.14552C4.92409 3.14641 4.93936 3.15048 4.96786 3.17677L4.47267 3.30008ZM7.88244 10.7488L7.88244 10.7488C8.10177 11.2397 8.28556 11.7432 8.37231 12.3075C8.3733 12.3139 8.37445 12.3211 8.37572 12.329C8.38817 12.407 8.41187 12.5553 8.40505 12.7033C8.39719 12.8741 8.346 13.1323 8.11936 13.3273C7.88348 13.5303 7.60926 13.5534 7.41073 13.5331C7.21982 13.5135 7.04433 13.4487 6.93928 13.4086L6.93918 13.4086C6.3549 13.1853 5.96009 12.7668 5.64668 12.4345C5.60554 12.3909 5.56579 12.3487 5.52721 12.3087C5.0356 11.799 4.56275 11.2971 4.09217 10.7977C3.53004 10.2011 2.97117 9.60794 2.3875 9.00898C2.25469 8.87273 2.11668 8.73936 1.97235 8.59988C1.95931 8.58728 1.94621 8.57462 1.93306 8.56191C1.77672 8.41074 1.61379 8.25238 1.45691 8.08743L1.45675 8.08726C1.38773 8.01462 1.33109 7.93281 1.30066 7.88886C1.29636 7.88265 1.29259 7.8772 1.28937 7.87263C1.27247 7.84862 1.26234 7.83512 1.2542 7.82534L7.88244 10.7488ZM7.88244 10.7488C7.02191 8.82298 6.00791 6.94928 4.97955 5.114L7.88244 10.7488ZM5.40755 15.2147L5.40756 15.2147C5.72285 15.7599 6.07715 16.4087 6.23469 17.0959C6.26588 17.2319 6.27066 17.3611 6.27314 17.4499C6.27361 17.4665 6.27401 17.4818 6.27437 17.496C6.27628 17.5694 6.27738 17.6117 6.28313 17.6543L6.28319 17.6548C6.33871 18.0691 6.40549 18.4789 6.49235 18.8812L5.40755 15.2147ZM5.40755 15.2147C4.83745 14.2291 4.15477 13.3052 3.46504 12.411C3.29405 12.1893 3.12312 11.9701 2.95319 11.7521C2.43147 11.0829 1.91925 10.4258 1.44417 9.74854C1.13537 9.30828 0.84737 8.87619 0.620517 8.4324C0.55885 8.31174 0.522534 8.22646 0.507111 8.15678C0.493964 8.09738 0.501945 8.07625 0.507344 8.0647C0.53724 8.00076 0.666061 7.87121 0.874183 7.80231C1.07801 7.73483 1.19749 7.77502 1.2443 7.81446L5.40755 15.2147ZM15.9326 13.3016C15.9154 13.3075 15.8988 13.3132 15.8829 13.3186M15.9326 13.3016L15.8829 13.3186M15.8829 13.3186C15.7387 13.3678 15.6406 13.3988 15.5935 13.4079L15.8829 13.3186ZM5.12657 3.40095C5.06491 3.28903 5.01558 3.22086 4.96794 3.17684L5.12657 3.40095ZM5.12657 3.40095C5.15397 3.45069 5.17989 3.50156 5.2098 3.56027M5.12657 3.40095L5.2098 3.56027M5.2098 3.56027C5.21336 3.56724 5.21697 3.57433 5.22064 3.58154M5.2098 3.56027L5.22064 3.58154M5.22064 3.58154C5.25344 3.64584 5.29157 3.72005 5.33361 3.7927L5.22064 3.58154ZM18.1355 19.9038C18.2474 19.8943 18.3601 19.8793 18.4689 19.8626L18.0932 19.4056L18.1354 19.9038C18.1355 19.9038 18.1355 19.9038 18.1355 19.9038ZM7.5624 7.66546C7.91779 8.26773 8.27133 8.86687 8.61096 9.45894L5.33369 3.79285C5.60305 4.25867 5.86746 4.72768 6.13163 5.19918C6.59172 6.02048 7.07877 6.84588 7.5624 7.66546ZM16.3975 13.6777C16.5808 13.6313 16.7246 13.6089 16.8655 13.587C17.0323 13.561 17.1952 13.5357 17.4149 13.4718L16.3975 13.6777ZM4.25604 3.35845C4.25606 3.35848 4.25587 3.35898 4.2554 3.35983L4.25604 3.35845Z" stroke="#EADEDE"/>
<path d="M35.7958 18.2407C35.8584 18.0458 35.9294 17.8098 35.9868 17.5927C36.0474 17.3635 36.0825 17.1927 36.0888 17.1107L36.0888 17.1107C36.1399 16.4462 36.0481 15.809 35.7649 15.2194L35.7648 15.2193C35.6416 14.9627 35.5063 14.7437 35.3743 14.6458L35.3741 14.6456C35.3044 14.5938 35.1907 14.5412 35.0129 14.4745C34.9795 14.4619 34.9423 14.4484 34.9028 14.434C34.7642 14.3837 34.5964 14.3227 34.4566 14.2552M35.7958 18.2407L34.674 13.805M35.7958 18.2407C35.4068 19.4329 34.9683 20.5964 34.459 21.7532C34.2781 22.1638 34.1061 22.5812 33.9368 22.9921C33.8556 23.1892 33.775 23.3848 33.6943 23.5775L33.6942 23.5776C33.6658 23.6456 33.6348 23.7166 33.6026 23.7905C33.4656 24.1044 33.3066 24.4691 33.2266 24.8635L33.2266 24.8637C33.0148 25.9101 33.0774 26.961 33.1357 27.9398C33.1469 28.1263 33.1578 28.3101 33.1667 28.4908C33.2148 29.4701 33.1942 30.4779 33.1669 31.4792M35.7958 18.2407L30.7775 28.4663L31.272 28.3926C31.3749 29.0829 31.4342 29.7802 31.492 30.4593C31.502 30.5769 31.512 30.6939 31.5221 30.8102C31.5914 31.6067 31.6693 32.3795 31.8219 33.1365L31.822 33.1367C31.8434 33.243 31.8593 33.341 31.8744 33.4339C31.9044 33.6189 31.9312 33.784 31.9919 33.9557C32.072 34.1824 32.1575 34.2473 32.2546 34.269M34.4566 14.2552L34.674 13.805M34.4566 14.2552C34.4566 14.2552 34.4567 14.2552 34.4567 14.2553L34.674 13.805M34.4566 14.2552C33.7519 13.9151 33.0784 13.5155 32.46 13.0452M34.674 13.805C33.9947 13.4772 33.3506 13.0944 32.7625 12.6472M32.46 13.0452L32.7625 12.6472M32.46 13.0452C32.4599 13.0452 32.4599 13.0452 32.4599 13.0452L32.7625 12.6472M32.46 13.0452C31.9983 12.6943 31.5912 12.3052 31.2049 11.933C31.2049 11.933 31.2049 11.933 31.2048 11.9329L31.5517 11.5729L32.7625 12.6472M33.1669 31.4792C33.1669 31.4792 33.1669 31.4791 33.1669 31.4791L33.6667 31.4928L33.1669 31.4792ZM33.1669 31.4792C33.1501 32.0878 33.1145 32.6956 33.0675 33.3071C33.0653 33.3352 33.0632 33.3631 33.0612 33.3908C33.0505 33.5349 33.0402 33.6742 33.0187 33.8121C32.9926 33.9793 32.9568 34.0917 32.9185 34.1573M32.9185 34.1573C32.9112 34.1698 32.8625 34.2266 32.7042 34.2641C32.5543 34.2996 32.3819 34.2974 32.2546 34.269M32.9185 34.1573L33.3504 34.4093L32.9186 34.1572C32.9186 34.1572 32.9185 34.1573 32.9185 34.1573ZM32.2546 34.269L32.1459 34.7571L32.2547 34.2691C32.2546 34.269 32.2546 34.269 32.2546 34.269ZM28.7322 11.2125L28.7319 11.2125C28.5889 11.2297 28.4458 11.2616 28.2721 11.3004L28.2681 11.3013C28.1011 11.3386 27.9046 11.3823 27.6979 11.4044L28.7322 11.2125ZM28.7322 11.2125C29.0072 11.1793 29.2839 11.1908 29.6073 11.2042C29.6514 11.206 29.6963 11.2079 29.7423 11.2096C30.014 11.2202 30.2057 11.2296 30.3556 11.2823M28.7322 11.2125L30.3556 11.2823M24.511 12.2902L24.5109 12.2902C23.6122 12.6267 22.744 13.012 21.861 13.404C21.6497 13.4978 21.4375 13.5919 21.2238 13.6859C20.1251 14.1692 18.9968 14.6426 17.7983 14.9992L17.7983 14.9992C17.6071 15.056 17.4119 15.1075 17.2256 15.1565C17.1843 15.1674 17.1434 15.1782 17.1031 15.1889C16.8765 15.2489 16.6629 15.3078 16.4586 15.3765C16.4006 15.396 16.3477 15.4208 16.2661 15.4592C16.2476 15.4679 16.2276 15.4773 16.2057 15.4875C16.1012 15.5362 15.9571 15.6008 15.7891 15.6374L15.789 15.6375C15.3888 15.7246 14.9675 15.7337 14.6204 15.7411L14.6042 15.7414M24.511 12.2902L14.6042 15.7414M24.511 12.2902C25.5921 11.8853 26.607 11.521 27.6978 11.4044M24.511 12.2902L27.6978 11.4044M14.6042 15.7414L14.5932 15.2415L14.6039 15.7414C14.604 15.7414 14.6041 15.7414 14.6042 15.7414ZM13.8305 15.8073C13.8364 15.8191 13.8435 15.8318 13.8518 15.845C13.8704 15.8747 13.8915 15.9012 13.9112 15.9216L13.9112 15.9216C14.1964 16.2176 14.6478 16.3824 15.1955 16.4808L15.1955 16.4808C15.9044 16.6081 16.6203 16.5877 17.3777 16.5291C17.5702 16.5142 17.7677 16.4965 17.9687 16.4785C18.5391 16.4274 19.1378 16.3738 19.7316 16.3738C20.1216 16.3738 20.578 16.4182 20.9854 16.5801C21.4031 16.746 21.8027 17.0517 21.979 17.5768L21.505 17.7359L21.979 17.5768C22.164 18.1281 22.008 18.7122 21.8685 19.0982L21.8685 19.0983C21.604 19.8294 21.2362 20.4941 20.8421 21.1346L20.8421 21.1346C20.085 22.3648 19.1717 23.4955 18.2791 24.5987C17.2032 25.9288 16.1002 27.2465 14.9646 28.5395L14.9645 28.5396C14.8542 28.6651 14.7435 28.7916 14.6324 28.9186C14.3678 29.2211 14.1008 29.5263 13.8309 29.8273C13.7723 29.8927 13.717 29.9529 13.6652 30.0093C13.4855 30.2048 13.3481 30.3544 13.2595 30.5178C13.2107 30.6078 13.1961 30.6718 13.1958 30.7198C13.1955 30.7626 13.206 30.8283 13.27 30.9267C13.3117 30.9907 13.3773 31.058 13.4877 31.1567C13.4877 31.1567 13.4877 31.1568 13.4877 31.1568L13.1545 31.5295C13.1676 31.5413 13.181 31.5533 13.1945 31.5656L13.8305 15.8073ZM13.8305 15.8073C13.8101 15.8132 13.7928 15.8193 13.7784 15.8253C13.7652 15.8308 13.7578 15.8348 13.7547 15.8367C13.7599 15.8329 13.7753 15.82 13.7913 15.7935L13.3633 15.535L13.7914 15.7934C13.8064 15.7685 13.8078 15.7496 13.8077 15.7436M13.8305 15.8073L13.8077 15.7436M13.8077 15.7436C13.8077 15.7423 13.8076 15.7416 13.8075 15.7415L13.8077 15.7436ZM18.7546 34.7837L18.7546 34.7838C18.7382 34.8514 18.748 34.9867 18.836 35.1627C18.9214 35.3332 19.0485 35.476 19.1644 35.5526C19.2104 35.583 19.3795 35.6387 19.616 35.6411C19.723 35.6422 19.8203 35.6317 19.8965 35.6134C19.9671 35.5965 19.9968 35.5785 20.0014 35.5756C20.0022 35.5752 20.0023 35.5751 20.0018 35.5755L20.0019 35.5754C20.0757 35.514 20.1551 35.4075 20.2476 35.2424C20.2923 35.1627 20.3347 35.0792 20.3805 34.9887L20.3868 34.9763C20.429 34.8928 20.4756 34.8007 20.5235 34.7152L20.5236 34.7151C21.66 32.6882 22.9503 30.7045 24.2451 28.7747M18.7546 34.7837L25.4247 27.1196L25.4246 27.1197M18.7546 34.7837C18.7833 34.665 18.8493 34.5216 18.9499 34.3396C18.9793 34.2864 19.0153 34.2241 19.0535 34.1578C19.1261 34.032 19.207 33.8917 19.2672 33.7727L18.7546 34.7837ZM24.2451 28.7747L24.6603 29.0533L24.2451 28.7747C24.2451 28.7747 24.2451 28.7747 24.2451 28.7747ZM24.2451 28.7747C24.3216 28.6608 24.4001 28.5391 24.4815 28.413C24.7534 27.9916 25.0576 27.5202 25.4246 27.1197M25.4246 27.1197C25.4242 27.1201 25.424 27.1203 25.424 27.1203M25.4246 27.1197L25.424 27.1203M26.8001 29.4603L26.8001 29.4604C26.6595 30.3637 26.5509 31.2735 26.4415 32.191C26.4246 32.3326 26.4077 32.4744 26.3906 32.6163C26.3906 32.6163 26.3906 32.6163 26.3906 32.6164L26.8001 29.4603ZM26.8001 29.4603C26.8046 29.4315 26.8091 29.4026 26.8137 29.3735C26.8985 28.8296 26.9937 28.2191 26.9937 27.6226C26.9937 27.6191 26.9939 27.6125 26.9942 27.6031C26.9963 27.5407 27.0022 27.3587 26.9744 27.2091C26.9382 27.0142 26.8087 26.6705 26.4024 26.5752M26.8001 29.4603L26.4024 26.5752M30.3556 11.2823L30.5222 10.8109L30.356 11.2825C30.3559 11.2824 30.3557 11.2824 30.3556 11.2823L30.3556 11.2823ZM27.6978 11.4044L27.6447 10.9072L27.6978 11.4044ZM26.4024 26.5752C26.0004 26.4809 25.7295 26.738 25.6219 26.8594M26.4024 26.5752L25.6219 26.8594M25.6219 26.8594C25.5621 26.9269 25.5118 26.9982 25.4798 27.0435M25.6219 26.8594L25.4798 27.0435M25.4798 27.0435L25.4784 27.0456M25.4798 27.0435L25.4784 27.0456M25.4784 27.0456C25.4601 27.0715 25.4481 27.0885 25.437 27.1035M25.4784 27.0456L25.437 27.1035M25.437 27.1035C25.4279 27.1158 25.424 27.1203 25.424 27.1203M25.437 27.1035L25.424 27.1203M27.8624 34.9596L27.371 34.8672L27.371 34.8673L27.8624 34.9596ZM28.5257 28.4855C28.5256 28.4856 28.5256 28.4856 28.5256 28.4856L29.0128 28.5945L28.5257 28.4855ZM29.4417 27.0906L28.9909 26.8743C28.9909 26.8744 28.9908 26.8745 28.9908 26.8746L29.4417 27.0906ZM13.816 31.4075L13.8156 31.4074L22.6194 25.8617L23.0935 26.0205C23.0935 26.0204 23.0936 26.0202 23.0936 26.0201C23.14 25.8815 23.2056 25.6509 23.1885 25.4082C23.1694 25.1352 23.0377 24.8156 22.6775 24.6467L22.6773 24.6466C22.3845 24.5094 22.1074 24.5617 21.9178 24.6309C21.7826 24.6804 21.638 24.762 21.5558 24.8083C21.5369 24.819 21.5213 24.8278 21.5098 24.8339C20.9119 25.1541 20.4543 25.5841 20.0335 25.9795C19.9898 26.0206 19.9465 26.0613 19.9034 26.1015C18.5065 27.4051 17.0764 28.6808 15.6419 29.9603C15.4897 30.0961 15.3375 30.2319 15.1852 30.3678C15.0376 30.4995 14.8772 30.6237 14.701 30.7588L14.6726 30.7806C14.5089 30.9061 14.3312 31.0423 14.1624 31.1891L14.1623 31.1892C14.0427 31.2932 13.9677 31.3549 13.8972 31.3905C13.8455 31.4166 13.8301 31.4118 13.816 31.4075Z" stroke="#EADEDE"/>
</svg>
