<svg width="41" height="41" viewBox="0 0 41 41" fill="none" xmlns="http://www.w3.org/2000/svg">
<path d="M40 14.5903V40H28.4187V30.4571V30.311L28.3769 30.171L27.4187 30.4571C28.3769 30.171 28.3769 30.1707 28.3768 30.1705L28.3766 30.1698L28.3759 30.1676L28.3738 30.1606L28.3662 30.1357C28.3597 30.1144 28.3503 30.0836 28.3379 30.0442C28.3132 29.9653 28.2769 29.8514 28.2295 29.7075C28.1347 29.4199 27.9951 29.0116 27.8141 28.5234C27.4531 27.5498 26.9224 26.2447 26.2477 24.9389C25.5782 23.6429 24.7406 22.294 23.7505 21.2699C22.7726 20.2584 21.5088 19.4265 20.0078 19.5012C18.6128 19.5707 17.4833 20.477 16.6292 21.4954C15.7561 22.5365 15.025 23.8666 14.4436 25.1348C13.8578 26.4124 13.4018 27.6764 13.093 28.6167C12.9382 29.0882 12.8194 29.4813 12.7389 29.7579C12.6986 29.8963 12.6679 30.0058 12.647 30.0815C12.6366 30.1194 12.6286 30.1488 12.6231 30.1693L12.6167 30.1931L12.6149 30.1999L12.6144 30.2019L12.6142 30.2026C12.6141 30.2028 12.6141 30.203 13.5812 30.4571L12.6141 30.203L12.5812 30.328V30.4571V40H1V14.5774L20.0698 1.21258L40 14.5903Z" fill="#102660" stroke="#102660" stroke-width="2"/>
</svg>
