<svg id="Camada_1" data-name="Camada 1" xmlns="http://www.w3.org/2000/svg" viewBox="0 0 45 37"><defs><style>.cls-1{fill:#e9dddd;}</style></defs><title>LIBRASFULL</title><path class="cls-1" d="M13.46.31a1.87,1.87,0,0,1,.71.34,1.59,1.59,0,0,1,.6,1c.15.83.34,1.65.5,2.47s.25,1.46.38,2.18.22,1.26.34,1.88.26,1.39.38,2.09a1.19,1.19,0,0,0,.49.78.5.5,0,0,0,.77-.18,2.59,2.59,0,0,0,.42-1.11c.12-.72.33-1.43.49-2.15.31-1.31.62-2.62.92-3.94.11-.45.2-.9.27-1.36a1.49,1.49,0,0,0,0-.21.75.75,0,0,1,.61-.68,1.44,1.44,0,0,1,1.38.3.91.91,0,0,1,.29.69,8.26,8.26,0,0,1-.07,1c0,.26,0,.52-.06.78,0,.42-.07.83-.1,1.25l-.06.81c0,.47-.07.94-.1,1.42,0,.15,0,.31,0,.47,0,.39-.05.77-.06,1.16s-.05,1-.08,1.55a8.06,8.06,0,0,0,0,1c0,.34,0,.68.05,1,0,.06,0,.08-.06.09-.59.14-1.15.37-1.73.56a9.41,9.41,0,0,1-1.15.24c-.27.06-.53.16-.8.23a2.81,2.81,0,0,1-.82,0,3.75,3.75,0,0,0-.58,0,6,6,0,0,0-.94.16,2.66,2.66,0,0,0-1.19.64,2.42,2.42,0,0,0-.55.89,3.37,3.37,0,0,0-.21.77,1.34,1.34,0,0,0,.32.95,4.32,4.32,0,0,0,1.18,1l.7.42a3.54,3.54,0,0,0,1.25.45,11.49,11.49,0,0,0,2.62.13,7.79,7.79,0,0,0,1.52-.18l.29,0c.15,0,.16,0,.09.13a1,1,0,0,1-.11.21c-.2.29-.34.61-.54.89a.94.94,0,0,1-.09.12,10.6,10.6,0,0,0-1,1.2l-.85,1-1,1.17-1,1.1c-.24.28-.5.54-.72.84a.58.58,0,0,1-.55.28,6.78,6.78,0,0,0-.78,0l-1.49.05a3.12,3.12,0,0,0-.74.14,1.53,1.53,0,0,1-1-.11,4.5,4.5,0,0,1-1.76-1.29,5.63,5.63,0,0,1-.8-1.13,1.21,1.21,0,0,1-.13-.59,2.3,2.3,0,0,0-.24-.81c-.24-.7-.47-1.4-.67-2.1s-.3-1.12-.41-1.69a9.45,9.45,0,0,1-.18-1.3,1.87,1.87,0,0,0-.19-.62,12.82,12.82,0,0,0-1.43-2.39c-.37-.51-.76-1-1.15-1.49s-1-1.25-1.54-1.89A14.06,14.06,0,0,1,1.6,8.71a.71.71,0,0,1,0-.8A1.26,1.26,0,0,1,3,7.54a.61.61,0,0,1,.19.17c.33.39.73.72,1.1,1.08s.58.57.86.85c.48.48,1,1,1.44,1.45.23.23.44.48.68.69a10.89,10.89,0,0,0,1.06,1,1.64,1.64,0,0,0,1,.36.33.33,0,0,0,.35-.34A2.68,2.68,0,0,0,9.52,12a6,6,0,0,0-.47-1.17c-.33-.67-.66-1.34-1-2C7.59,8,7.13,7.2,6.64,6.39c-.34-.58-.69-1.16-1-1.75a2,2,0,0,1-.28-1,.45.45,0,0,1,.28-.44,5.57,5.57,0,0,1,.81-.29A.59.59,0,0,1,6.91,3a1.36,1.36,0,0,1,.34.41c.32.6.68,1.17,1,1.75C8.83,6.12,9.4,7,10,8l1,1.56a8.46,8.46,0,0,0,.56.86,2.75,2.75,0,0,0,.78.7l.17.07a.27.27,0,0,0,.34-.17.71.71,0,0,0,0-.38.25.25,0,0,1,0-.08c0-.51,0-1-.06-1.52s-.07-.74-.1-1.11l-.06-.74c0-.36-.07-.73-.1-1.09s0-.46-.06-.69-.07-.76-.1-1.14l-.06-.7c0-.53-.08-1.06-.17-1.59a1.33,1.33,0,0,1,.14-1.1A1.51,1.51,0,0,1,13,.33a.1.1,0,0,0,.07,0Z"/><path class="cls-1" d="M21.88,16.91c-.7,0-1.26.06-1.83.1l-.91.07c-.4,0-.8,0-1.2,0a4.56,4.56,0,0,1-2-.45,1.42,1.42,0,0,1-.58-.48c-.27-.4-.14-.71.34-.8a6,6,0,0,1,.74-.06,7.53,7.53,0,0,0,1.25-.1,1.32,1.32,0,0,0,.3-.1,8.2,8.2,0,0,1,1.44-.43c.77-.21,1.53-.47,2.27-.75s1.63-.66,2.44-1,1.5-.63,2.26-.9a16.56,16.56,0,0,1,3-.89c.61-.1,1.23-.22,1.84-.3a4.78,4.78,0,0,1,1,0c.2,0,.41,0,.61.05a2.2,2.2,0,0,1,1,.59,13.77,13.77,0,0,0,2,1.6,9.82,9.82,0,0,0,2.11,1,1.71,1.71,0,0,1,.94.87,4,4,0,0,1,.42,2.18,3.78,3.78,0,0,1-.17.74c-.27.88-.6,1.74-1,2.59-.43,1.06-.93,2.09-1.37,3.15a6.63,6.63,0,0,0-.48,1.21,8.28,8.28,0,0,0-.13,1c0,.25,0,.49,0,.74,0,.54,0,1.07.09,1.61,0,.69.06,1.39,0,2.09,0,.24,0,.49,0,.74,0,.59,0,1.17-.09,1.75a8,8,0,0,1-.1,1,.86.86,0,0,1-.8.76,1.6,1.6,0,0,1-.72,0,.93.93,0,0,1-.56-.7c-.13-.52-.21-1-.3-1.57s-.12-1-.18-1.5,0-.69-.08-1-.11-.94-.17-1.41c0-.22,0-.44,0-.66a1.18,1.18,0,0,0-.47-1,.46.46,0,0,0-.73.11,3.11,3.11,0,0,0-.42,1.07c-.19.75-.36,1.51-.5,2.27-.18.92-.33,1.84-.49,2.76-.13.69-.27,1.37-.39,2.06a6.17,6.17,0,0,1-.2.85,1.9,1.9,0,0,1-.39.71.67.67,0,0,1-.51.24,3.29,3.29,0,0,1-.7,0,.78.78,0,0,1-.62-.77,7.46,7.46,0,0,1,.1-1.06c0-.22,0-.45.06-.67.05-.41.12-.82.18-1.23l.15-1.11c.05-.37.09-.75.14-1.13l.18-1.2c0-.32.1-.63.14-.95a8.17,8.17,0,0,0,.1-1.31.33.33,0,0,0-.2-.3.34.34,0,0,0-.35.15c-.36.45-.73.89-1.05,1.37-.87,1.27-1.77,2.52-2.61,3.81-.53.8-1,1.62-1.53,2.45-.14.24-.26.5-.42.74a.93.93,0,0,1-.6.38,1.7,1.7,0,0,1-1-.1,1.32,1.32,0,0,1-.76-1.28,1.69,1.69,0,0,1,.29-.64c.2-.32.37-.65.54-1l1.19-2.26c.29-.56.59-1.11.87-1.67.45-.87.91-1.73,1.37-2.59a2.68,2.68,0,0,0,.31-.83.42.42,0,0,0-.59-.49,4.36,4.36,0,0,0-.9.49,15.2,15.2,0,0,0-1.22,1l-1.39,1.2L19.6,28.77c-.44.38-.9.75-1.33,1.14-.62.55-1.29,1-1.94,1.55a.75.75,0,0,1-.71.21,1,1,0,0,1-.24-.11,2.73,2.73,0,0,1-.57-.5.85.85,0,0,1,0-1.1c.19-.26.44-.48.65-.72.39-.43.8-.85,1.19-1.28l1.26-1.39c.5-.57,1-1.14,1.5-1.72s1-1.15,1.47-1.73a24.47,24.47,0,0,0,1.77-2.38,9.68,9.68,0,0,0,1-2,1.62,1.62,0,0,0,.1-.82,1.09,1.09,0,0,0-.78-.87A2.69,2.69,0,0,0,21.88,16.91Z"/><path class="cls-1" d="M43.52,17.76A3.72,3.72,0,0,1,43.36,19a.71.71,0,0,1-.23.34.39.39,0,0,1-.39.08c-.16-.05-.32,0-.48-.06s-.35-.21-.25-.45a2.93,2.93,0,0,0,.17-.92A5.72,5.72,0,0,0,42,16.19a5.59,5.59,0,0,0-.38-1.2,2,2,0,0,0-.39-.62c-.12-.12-.12-.25,0-.43a.32.32,0,0,1,.35-.17,1.43,1.43,0,0,1,.78.52,5.14,5.14,0,0,1,.93,2,5.41,5.41,0,0,1,.23,1.06A2.64,2.64,0,0,1,43.52,17.76Z"/><path class="cls-1" d="M4.76,24.72a.66.66,0,0,1,0-.23.33.33,0,0,1,.4-.21.48.48,0,0,1,.36.38,2.7,2.7,0,0,0,.46.91A9.14,9.14,0,0,0,7.24,27a4.73,4.73,0,0,0,1.41,1,.27.27,0,0,1,.14.43c-.08.12-.17.23-.26.34a.37.37,0,0,1-.38.11,2.5,2.5,0,0,1-.85-.42,6.88,6.88,0,0,1-.73-.58A5.79,5.79,0,0,1,6,27.19a9.55,9.55,0,0,1-1-1.52A2.29,2.29,0,0,1,4.76,24.72Z"/><path class="cls-1" d="M10.27,27.94a2.22,2.22,0,0,1-.73-.2,5.48,5.48,0,0,1-1.87-1.4A11.7,11.7,0,0,1,6.38,24.5a.92.92,0,0,1-.1-.44.21.21,0,0,1,.13-.19.67.67,0,0,1,.44,0,.33.33,0,0,1,.23.23,6.33,6.33,0,0,0,1,1.65,5.2,5.2,0,0,0,2.05,1.48l.31.1a.4.4,0,0,1,.11.6C10.48,28,10.38,27.93,10.27,27.94Z"/><path class="cls-1" d="M41,16.91a3.72,3.72,0,0,1-.31,1.52,1,1,0,0,1-.36.44c-.1.08-.2,0-.29,0L40,18.73c-.19-.2-.19-.24-.05-.48a3,3,0,0,0,.3-.86,3.32,3.32,0,0,0,.08-1,4.28,4.28,0,0,0-.22-1.12,5.06,5.06,0,0,0-.41-1.06c-.11-.2.05-.4.29-.44s.31.14.42.27a1.39,1.39,0,0,1,.23.56A10.81,10.81,0,0,1,40.94,16,4.42,4.42,0,0,1,41,16.91Z"/></svg>