<svg width="50" height="41" viewBox="0 0 50 41" fill="none" xmlns="http://www.w3.org/2000/svg">
<path d="M43.628 10.0692L5.76505 9.82525C3.21634 9.80883 1.20989 7.79377 1.2253 5.40107C1.24071 3.0084 3.27293 1.01943 5.82166 1.03585L43.6846 1.27975C46.2334 1.29617 48.2397 3.31122 48.2243 5.70393C48.2089 8.09661 46.1768 10.0856 43.628 10.0692Z" fill="#102660" stroke="#102660" stroke-width="2"/>
<path d="M5.72645 15.8249L43.5894 16.0688C46.1382 16.0852 48.1445 18.1003 48.1291 20.493C48.1137 22.8857 46.0816 24.8746 43.5327 24.8582L5.66983 24.6143C3.12109 24.5979 1.11467 22.583 1.13008 20.1902C1.1455 17.7974 3.17773 15.8085 5.72645 15.8249Z" fill="#102660" stroke="#102660" stroke-width="2"/>
<path d="M5.63111 30.6142L43.494 30.8581C46.0428 30.8745 48.0492 32.8895 48.0338 35.2822C48.0184 37.6749 45.9862 39.6638 43.4374 39.6474L5.57449 39.4035C3.02576 39.3871 1.01933 37.3721 1.03475 34.9794C1.05016 32.5868 3.08238 30.5978 5.63111 30.6142Z" fill="#102660" stroke="#102660" stroke-width="2"/>
</svg>
